<svg width="908" height="1070" viewBox="0 0 908 1070" fill="none" xmlns="http://www.w3.org/2000/svg">
<path d="M465.986 88.8272C455.961 73.7989 438.166 58.8781 438.166 58.8781L433.507 37.365C433.507 37.365 437.601 31.1373 437.007 27.1745C436.272 22.2755 428.848 15.8518 428.848 15.8518L425.415 0L422.294 15.8518C422.294 15.8518 414.418 22.2023 413.823 27.1745C413.343 31.1935 418.059 37.365 418.059 37.365L413.823 58.8781C413.823 58.8781 397.402 73.5534 386.18 88.8272C357.614 127.706 359.774 208.623 359.774 208.623V311.375L324.567 322.697L318.516 349.872V358.93V641.134L301.384 636.337L245.744 712.199H221.401V431.396L214.544 392.898L186.489 378.179V257.026L176.194 225.322C176.194 225.322 173.13 181.679 165.761 166.617C156.327 147.334 126.349 127.722 126.349 127.722L123.874 109.83C123.874 109.83 128.426 102.939 127.509 98.5077C126.785 95.0134 121.713 90.5817 121.713 90.5817L118.235 69.0686L114.834 90.5817C114.834 90.5817 109.777 94.7709 108.962 98.5077C108.043 102.718 111.898 109.152 111.898 109.152L108.962 127.722C108.962 127.722 78.3674 147.392 67.664 166.617C59.356 181.539 56.1116 208.623 56.1116 208.623L48.6851 369.121L8.11418 378.179L0 408.75V1026.97L761.574 1027V850L682.75 784.664L543.65 731.448V545.755L540.172 374.782V358.93L532.058 341.946L503.079 318.168L497.283 208.623C497.283 208.623 492.49 128.559 465.986 88.8272Z" fill="#616161"/>
<path d="M140.615 0L478.507 459.583C485.863 469.589 486.294 483.093 479.59 493.548L418.976 588.07L0 0H140.615Z" transform="translate(423.281 143.432)" fill="url(#paint0_linear)"/>
<path d="M311.363 0L423.281 150.603L166.443 494.839H0L302.754 67.4129C302.754 67.4129 314.441 45.8981 317.102 32.9893C320.947 14.3366 311.363 0 311.363 0Z" transform="translate(252.534 575.161)" fill="url(#paint1_linear)"/>
<path d="M0 342.802L262.578 0C295.101 35.3798 358.713 117.614 330.016 153.472C286.014 217.06 172.182 342.802 172.182 342.802H0Z" transform="translate(411.802 727.199)" fill="url(#paint2_linear)"/>
<path d="M0 169.249C0 169.249 28.697 127.654 63.1334 78.8874C85.2222 47.6066 78.9739 23.9976 71.6531 11.0886L63.1334 0C63.1334 0 67.5608 3.87253 71.6531 11.0886L276.926 278.257L242.49 327.024L0 169.249Z" transform="translate(493.589 560.817)" fill="url(#paint3_linear)" fill-opacity="0.3"/>
<path d="M591.159 587.779L170.747 0H0L483.541 671.131C483.541 671.131 492.391 688.97 493.861 701.311C495.532 715.348 489.438 737.239 489.438 737.239L591.159 587.779Z" transform="translate(252.534 143.432)" fill="url(#paint4_linear)"/>
<path d="M147.47 88.8271C137.445 73.7989 119.65 58.8781 119.65 58.8781L114.991 37.365C114.991 37.365 119.085 31.1373 118.491 27.1745C117.756 22.2755 110.332 15.8518 110.332 15.8518L106.899 0L103.778 15.8518C103.778 15.8518 95.9016 22.2023 95.3072 27.1745C94.8268 31.1935 99.5426 37.365 99.5426 37.365L95.3072 58.8781C95.3072 58.8781 78.8862 73.5534 67.664 88.8271C39.0983 127.706 41.2585 208.623 41.2585 208.623V311.375L6.05126 322.697L0 349.872V358.93V641.134V712.199V860.59L147.47 757.319L221.657 641.134L225.134 545.755L221.657 374.782V358.93L213.542 341.946L184.563 318.168L178.767 208.623C178.767 208.623 173.974 128.559 147.47 88.8271Z" transform="translate(318.537)" fill="#616161"/>
<defs>
<linearGradient id="paint0_linear" x2="1" gradientUnits="userSpaceOnUse" gradientTransform="matrix(289.84 499.142 -692.25 401.674 532.656 -195.1)">
<stop stop-color="#DE4F45"/>
<stop offset="1" stop-color="#D5473D"/>
</linearGradient>
<linearGradient id="paint1_linear" x2="1" gradientUnits="userSpaceOnUse" gradientTransform="matrix(-249.664 382.962 -315.563 -205.572 595.411 236.177)">
<stop offset="0.248619" stop-color="#139E5B"/>
<stop offset="1" stop-color="#119957"/>
</linearGradient>
<linearGradient id="paint2_linear" x2="1" gradientUnits="userSpaceOnUse" gradientTransform="translate(321.806 1.43432) scale(317.502 341.367) rotate(90)">
<stop stop-color="#F7C745"/>
<stop offset="1" stop-color="#F9C948"/>
</linearGradient>
<linearGradient id="paint3_linear" x2="1" gradientUnits="userSpaceOnUse" gradientTransform="matrix(-208.053 -166.381 140.892 -176.05 167.739 361.979)">
<stop stop-color="#4F4F4F"/>
<stop offset="1" stop-color="#4F4F4F" stop-opacity="0.33"/>
</linearGradient>
<linearGradient id="paint4_linear" x2="1" gradientUnits="userSpaceOnUse" gradientTransform="matrix(515.974 694.125 -556.588 393.175 362.324 -196.587)">
<stop stop-color="#4D8EFC"/>
<stop offset="1" stop-color="#4E8AF0"/>
</linearGradient>
</defs>
</svg>
