<?xml version="1.0" encoding="UTF-8" standalone="no"?>
<svg
   xmlns:dc="http://purl.org/dc/elements/1.1/"
   xmlns:cc="http://creativecommons.org/ns#"
   xmlns:rdf="http://www.w3.org/1999/02/22-rdf-syntax-ns#"
   xmlns:svg="http://www.w3.org/2000/svg"
   xmlns="http://www.w3.org/2000/svg"
   xmlns:sodipodi="http://sodipodi.sourceforge.net/DTD/sodipodi-0.dtd"
   xmlns:inkscape="http://www.inkscape.org/namespaces/inkscape"
   version="1.1"
   viewBox="0 0 1011.9344 320.4403"
   stroke-miterlimit="10"
   id="svg23"
   sodipodi:docname="GDGZH-logo-mono.svg"
   width="1011.9344"
   height="320.44031"
   style="fill:none;stroke:none;stroke-linecap:square;stroke-miterlimit:10"
   inkscape:version="0.92.2 (5c3e80d, 2017-08-06)"
   inkscape:export-filename="/home/rac/Documents/electronics/breakout-boards/ublox_NINA-W102/silkscreen/GDG-logo-mono.png"
   inkscape:export-xdpi="96"
   inkscape:export-ydpi="96">
  <metadata
     id="metadata29">
    <rdf:RDF>
      <cc:Work
         rdf:about="">
        <dc:format>image/svg+xml</dc:format>
        <dc:type
           rdf:resource="http://purl.org/dc/dcmitype/StillImage" />
        <dc:title></dc:title>
      </cc:Work>
    </rdf:RDF>
  </metadata>
  <defs
     id="defs27" />
  <sodipodi:namedview
     pagecolor="#ffffff"
     bordercolor="#666666"
     borderopacity="1"
     objecttolerance="10"
     gridtolerance="10"
     guidetolerance="10"
     inkscape:pageopacity="0"
     inkscape:pageshadow="2"
     inkscape:window-width="2362"
     inkscape:window-height="1530"
     id="namedview25"
     showgrid="false"
     fit-margin-top="0"
     fit-margin-left="0"
     fit-margin-right="0"
     fit-margin-bottom="0"
     inkscape:zoom="1.2"
     inkscape:cx="594.92553"
     inkscape:cy="466.87689"
     inkscape:window-x="1282"
     inkscape:window-y="369"
     inkscape:window-maximized="0"
     inkscape:current-layer="g21" />
  <clipPath
     id="g38e44dbbcf_2_858.0">
    <path
       d="M 0,0 H 1920 V 1080 H 0 Z"
       id="path2"
       inkscape:connector-curvature="0"
       style="clip-rule:nonzero" />
  </clipPath>
  <g
     clip-path="url(#g38e44dbbcf_2_858.0)"
     id="g21"
     transform="translate(-579.81757,-320.83262)">
    <rect
       style="fill:#ffffff;stroke-width:0.56794459;stroke-miterlimit:4;stroke-dasharray:none"
       id="rect16"
       width="1011.9344"
       height="320.19193"
       x="579.81757"
       y="321.08099"
       inkscape:export-xdpi="96"
       inkscape:export-ydpi="96" />
    <path
       d="m 1245.4122,422.43333 c 43.0647,0 69.7601,24.1524 69.7601,68.80359 0,44.80973 -26.6954,68.80354 -69.7601,68.80354 h -31.9403 V 422.43333 Z m -61.8135,-29.87317 v 197.3583 h 60.8616 c 61.8136,0 100.744,-40.83889 100.744,-98.68155 0,-57.67923 -38.9304,-98.67675 -100.744,-98.67675 z"
       id="path7"
       inkscape:connector-curvature="0"
       style="fill:#000000;fill-rule:evenodd;stroke-width:1.45482171"
       inkscape:export-xdpi="96"
       inkscape:export-ydpi="96" />
    <path
       d="m 1063.1493,387.31525 c -57.362,0 -105.50812,46.55971 -105.50812,103.92167 0,57.20804 48.14612,103.92164 105.50812,103.92164 30.8298,0 54.1891,-10.16769 72.4619,-29.23868 18.7488,-18.74886 24.4697,-44.96842 24.4697,-66.26045 0.1586,-6.67262 -0.476,-12.39342 -1.4278,-17.32104 h -94.7058 v 29.2386 h 66.7363 c -2.2258,14.93661 -7.3073,26.6955 -15.0952,34.32487 -9.8504,10.00902 -25.4264,20.81611 -52.4391,20.81611 -41.9494,0 -74.52443,-33.69035 -74.52443,-75.48105 0,-41.79077 32.57503,-75.47623 74.52443,-75.47623 22.5659,0 38.9303,8.89848 51.17,20.18148 l 20.018,-20.02284 c -16.9989,-16.21055 -39.5649,-28.60407 -71.188,-28.60407 z"
       id="path9"
       inkscape:connector-curvature="0"
       style="fill:#000000;fill-rule:evenodd;stroke-width:1.45482171"
       inkscape:export-xdpi="96"
       inkscape:export-ydpi="96" />
    <path
       d="m 1469.9421,387.31525 c -57.2033,0 -105.3544,46.55971 -105.3544,103.92167 0,57.20804 48.1511,103.92164 105.3544,103.92164 30.825,0 54.1841,-10.16769 72.4619,-29.23868 18.749,-18.74886 24.6283,-44.96842 24.6283,-66.26045 0,-6.67262 -0.4758,-12.39342 -1.5912,-17.32104 h -94.7059 v 29.2386 h 66.7412 c -2.0672,14.93661 -7.3119,26.6955 -15.0953,34.32487 -9.8551,10.00902 -25.2676,20.81611 -52.439,20.81611 -41.7908,0 -74.5244,-33.69035 -74.5244,-75.48105 0,-41.79077 32.7336,-75.47623 74.5244,-75.47623 22.5658,0 39.0889,8.89848 51.1651,20.18148 l 20.023,-20.02284 c -17.004,-16.21055 -39.5651,-28.60407 -71.1881,-28.60407 z"
       id="path11"
       inkscape:connector-curvature="0"
       style="fill:#000000;fill-rule:evenodd;stroke-width:1.45482171"
       inkscape:export-xdpi="96"
       inkscape:export-ydpi="96" />
    <path
       d="M 698.62795,370.78744 823.04833,572.59737 842.59518,540.81569 739.62544,370.78745 Z"
       id="path17"
       inkscape:connector-curvature="0"
       style="fill:#000000;fill-rule:evenodd;stroke:#ffffff;stroke-width:4.36446476;stroke-miterlimit:10;stroke-dasharray:none;stroke-opacity:1"
       inkscape:export-xdpi="96"
       inkscape:export-ydpi="96" />
    <path
       style="fill:#ffffff;stroke:none;stroke-width:0.27927819;stroke-linecap:square;stroke-miterlimit:10"
       d="m 726.3096,334.65013 c 0.23126,4.15306 -5.72087,7.27667 -2.27885,11.58173 -1.02011,7.48002 -10.01652,10.91164 -11.68403,18.56603 -6.66466,17.62395 -3.75354,36.89372 -4.4213,55.25197 -8.64814,0.22285 -11.91833,6.37788 -11.52206,14.32657 0,25.3514 0,50.70282 0,76.05422 -7.69345,-0.84332 -10.51242,12.43088 -16.26821,17.19645 -7.88527,10.76058 -4.29185,-10.2698 -5.03697,-15.33815 -1.0316,-23.06261 2.33256,-46.51366 -2.21065,-69.26599 -11.62465,-2.11366 -6.47208,-14.37073 -7.53836,-22.86798 1.3158,-8.96573 -1.23117,-17.23051 -3.20087,-25.72761 -0.14213,-9.38223 -3.62458,-18.77365 -11.96963,-23.85566 -4.83608,-2.337 1.37516,-8.3847 -3.10855,-11.45389 -1.3865,-5.23253 -2.79702,-24.49102 -4.1718,-20.17317 -1.3367,8.28018 -2.09613,16.79265 -5.06006,24.39273 3.20676,7.30247 -6.56228,9.27953 -9.54443,14.6363 -8.91974,13.92085 -4.36304,31.80145 -6.65136,47.3384 3.62074,11.38504 -6.13299,10.78138 -11.83226,14.76715 -5.01664,17.09232 -1.15026,35.3423 -2.36124,52.9305 0,43.97331 0,87.94661 0,131.91992 40.53515,0.003 81.07031,0.006 121.60547,0.009 7.17197,-17.58727 12.30104,-36.32563 20.78197,-53.17611 6.16757,-8.42599 15.2703,-15.57153 14.48258,-27.02915 2.08861,-36.53088 0.0173,-73.31892 -0.19255,-109.9388 -1.39385,-8.45803 -13.55701,-9.79792 -10.81546,-19.42817 -1.73977,-20.67122 0.43012,-45.23698 -14.43081,-61.8827 -4.76353,-2.65489 -3.94861,-7.51212 -3.79901,-11.9341 -4.33807,-5.91583 -3.96373,-13.79884 -6.05798,-20.717 -0.90453,4.60599 -1.80905,9.21198 -2.71358,13.81797 z"
       id="path2-3-6"
       inkscape:connector-curvature="0" />
    <path
       inkscape:connector-curvature="0"
       style="fill:#000000;stroke-width:0.27927819"
       d="m 740.49704,360.01807 c -2.79976,-4.19709 -7.7695,-8.36414 -7.7695,-8.36414 l -1.30117,-6.00815 c 0,0 1.14336,-1.73924 0.97746,-2.84598 -0.20526,-1.36817 -2.27862,-3.16217 -2.27862,-3.16217 l -0.95876,-4.42706 -0.87162,4.42706 c 0,0 -2.19962,1.77355 -2.36576,3.16217 -0.134,1.12243 1.18301,2.84598 1.18301,2.84598 l -1.18301,6.00815 c 0,0 -4.58604,4.0985 -7.72011,8.36414 -7.97786,10.85798 -7.37462,33.45634 -7.37462,33.45634 v 28.6964 l -9.83256,3.16199 -1.6899,7.58939 v 2.5297 78.81342 l -4.78459,-1.3397 -15.53904,21.18661 h -6.79846 v -78.42215 l -1.91503,-10.75166 -7.83515,-4.1107 v -33.83539 l -2.87516,-8.85423 c 0,0 -0.85572,-12.18854 -2.9137,-16.39502 -2.63473,-5.38533 -11.00694,-10.86254 -11.00694,-10.86254 l -0.69119,-4.99684 c 0,0 1.27126,-1.92451 1.01517,-3.16207 -0.20221,-0.97588 -1.61869,-2.21357 -1.61869,-2.21357 l -0.97135,-6.00814 -0.94982,6.00814 c 0,0 -1.41231,1.16996 -1.63992,2.21357 -0.25665,1.17585 0.81996,2.97271 0.81996,2.97271 l -0.81996,5.1862 c 0,0 -8.5444,5.49342 -11.53364,10.86254 -2.32024,4.16738 -3.22632,11.73134 -3.22632,11.73134 l -2.07405,44.82361 -11.33058,2.52969 -2.26612,8.53782 v 172.65536 l 116.6777,0.009 18.43113,-49.43225 14.41979,-18.24691 2.30099,-14.86208 v -51.85999 l -0.97134,-47.74902 v -4.42714 l -2.26606,-4.74325 -8.0932,-6.6407 -1.61871,-30.59352 c 0,0 -1.33856,-22.36013 -8.74056,-33.45634 z"
       id="path2-3"
       sodipodi:nodetypes="cccccccccccccccccccccccccsccccccccccccccccccccccccccc" />
    <path
       d="m 769.81587,511.41842 -72.77928,114.094 h 41.31485 l 51.80458,-81.83637 z"
       id="path13"
       inkscape:connector-curvature="0"
       style="fill:#000000;fill-rule:evenodd;stroke:#ffffff;stroke-width:4.36446476;stroke-miterlimit:10;stroke-dasharray:none;stroke-opacity:1"
       inkscape:export-xdpi="96"
       inkscape:export-ydpi="96" />
    <path
       d="m 796.35283,553.52648 -45.28576,71.98598 h 39.56496 l 25.42633,-41.63212 z"
       id="path15"
       inkscape:connector-curvature="0"
       style="fill:#000000;fill-rule:evenodd;stroke:#ffffff;stroke-width:4.36446476;stroke-miterlimit:10;stroke-dasharray:none;stroke-opacity:1"
       inkscape:export-xdpi="96"
       inkscape:export-ydpi="96" />
    <path
       d="m 752.33619,370.78744 96.77308,158.90388 11.44152,-18.59026 c 2.37973,-3.81224 3.65368,-8.4225 3.65368,-13.1915 0,-4.92274 -1.27395,-9.53308 -3.65368,-13.34532 l -69.60154,-113.7768 z"
       id="path19"
       inkscape:connector-curvature="0"
       style="fill:#000000;fill-rule:evenodd;stroke-width:1.45482171"
       inkscape:export-xdpi="96"
       inkscape:export-ydpi="96" />
    <text
       xml:space="preserve"
       style="font-style:normal;font-weight:normal;font-size:40.57036209px;line-height:1.25;font-family:sans-serif;letter-spacing:0px;word-spacing:0px;fill:#000000;fill-opacity:1;stroke:none;stroke-width:1.0142591"
       x="606.19977"
       y="622.4588"
       id="text883"><tspan
         sodipodi:role="line"
         id="tspan881"
         x="606.19977"
         y="622.4588"
         style="font-style:normal;font-variant:normal;font-weight:bold;font-stretch:normal;font-family:'Tlwg Typewriter';-inkscape-font-specification:'Tlwg Typewriter Bold';fill:#ffffff;stroke-width:1.0142591">Züri</tspan></text>
  </g>
</svg>
