<?xml version="1.0" encoding="UTF-8" standalone="no"?>
<!-- Created with Inkscape (http://www.inkscape.org/) -->

<svg
   xmlns:dc="http://purl.org/dc/elements/1.1/"
   xmlns:cc="http://creativecommons.org/ns#"
   xmlns:rdf="http://www.w3.org/1999/02/22-rdf-syntax-ns#"
   xmlns:svg="http://www.w3.org/2000/svg"
   xmlns="http://www.w3.org/2000/svg"
   xmlns:sodipodi="http://sodipodi.sourceforge.net/DTD/sodipodi-0.dtd"
   xmlns:inkscape="http://www.inkscape.org/namespaces/inkscape"
   width="210mm"
   height="297mm"
   viewBox="0 0 210 297"
   version="1.1"
   id="svg8"
   inkscape:version="0.92.2 (5c3e80d, 2017-08-06)">
  <defs
     id="defs2">
    <path
       style="fill:none;stroke:#000000;stroke-width:0.26458332px;stroke-linecap:butt;stroke-linejoin:miter;stroke-opacity:1"
       d="m -225.73572,130.01851 c 3.05155,52.94896 77.00449,60.25936 84.66653,4.00501"
       id="path72-6"
       inkscape:connector-curvature="0"
       sodipodi:nodetypes="cc" />
  </defs>
  <sodipodi:namedview
     id="base"
     pagecolor="#ffffff"
     bordercolor="#666666"
     borderopacity="1.0"
     inkscape:pageopacity="0.0"
     inkscape:pageshadow="2"
     inkscape:zoom="1.979899"
     inkscape:cx="278.52024"
     inkscape:cy="763.93974"
     inkscape:document-units="mm"
     inkscape:current-layer="layer1"
     showgrid="false"
     inkscape:window-width="3142"
     inkscape:window-height="2004"
     inkscape:window-x="-4"
     inkscape:window-y="0"
     inkscape:window-maximized="0" />
  <metadata
     id="metadata5">
    <rdf:RDF>
      <cc:Work
         rdf:about="">
        <dc:format>image/svg+xml</dc:format>
        <dc:type
           rdf:resource="http://purl.org/dc/dcmitype/StillImage" />
        <dc:title></dc:title>
      </cc:Work>
    </rdf:RDF>
  </metadata>
  <g
     inkscape:label="Layer 1"
     inkscape:groupmode="layer"
     id="layer1">
    <path
       style="fill:#ff0000;stroke-width:0.26458332"
       d="m 96.76058,33.171692 c -0.894411,-0.004 -1.790624,0.02212 -2.687693,0.07855 C 69.133209,33.902413 48.341642,59.22617 52.850081,83.849734 56.00796,108.15947 82.321108,126.31458 106.17447,120.12297 130.68538,115.19094 146.95114,86.522846 138.01026,63.013797 132.31608,45.65516 114.94688,33.253586 96.76058,33.171692 Z m 1.656744,1.99626 c 2.191106,1.072121 4.313046,0.52949 4.641066,0.937927 -2.28705,4.955093 2.89799,7.385695 4.75526,11.303188 1.27705,0.491061 2.52996,1.059883 3.75326,1.70222 18.1459,8.512694 21.78563,34.843421 8.88473,49.359261 -0.55036,0.689565 -1.12998,1.340184 -1.73168,1.959572 0.21311,-0.39347 0.17256,-0.789529 -0.14831,-1.176159 -0.75488,-0.909569 -3.90966,-2.051791 -7.5737,-2.741951 -1.14031,-0.214799 -1.8294,-0.624411 -4.03489,-2.396752 -1.46285,-1.175549 -2.65979,-2.185524 -2.65979,-2.244825 0,-0.05929 0.37269,-0.660636 0.82837,-1.335834 0.45569,-0.675201 1.1232,-2.074421 1.48312,-3.109373 0.62546,-1.7985 0.64674,-2.063628 0.47801,-5.995498 -0.20154,-4.696089 0.15654,-7.485443 1.27433,-9.927042 0.36825,-0.804352 0.62244,-1.462445 0.56534,-1.462445 -0.0571,0 -1.16208,1.07156 -2.45566,2.38125 -2.10857,2.134815 -2.45214,2.38125 -3.31866,2.38125 -0.84861,0 -1.07779,-0.153355 -1.87895,-1.25677 -1.314354,-1.810229 -2.989217,-5.062885 -3.201876,-6.217709 -0.159379,-0.865484 -0.118115,-0.992187 0.325044,-0.992187 0.279421,0 0.739174,-0.175017 1.021643,-0.388607 0.46804,-0.353901 0.431522,-0.365212 -0.412377,-0.12764 -0.631989,0.177911 -1.534834,0.164033 -2.843755,-0.04444 -1.054848,-0.168008 -2.662195,-0.228942 -3.571875,-0.135393 -0.909679,0.09355 -2.333093,0.242911 -3.163114,0.33228 -1.698239,0.182853 -3.242842,-0.06654 -2.588472,-0.418063 0.990499,-0.532072 5.375701,-1.070502 8.595341,-1.055233 3.418121,0.01621 4.293492,0.109403 7.488431,0.796335 1.95239,0.419775 2.52442,0.204637 2.64532,-0.994253 0.0588,-0.583483 -0.1301,-1.015453 -0.72192,-1.648998 l -0.80202,-0.858345 1.01854,-1.896007 c 1.43062,-2.66337 1.72213,-3.96568 1.53944,-6.870382 -0.25293,-4.021508 -1.37965,-6.55977 -4.3465,-9.792684 -1.68226,-1.833105 -1.71669,-1.900542 -1.60094,-3.105238 l 0.11834,-1.230931 -1.082103,0.618567 c -1.099471,0.62879 -2.385343,0.796848 -3.019454,0.394808 -0.258051,-0.163613 0.05519,-0.587491 1.190625,-1.611789 1.792499,-1.617059 1.66225,-1.603396 -2.85564,0.301792 -6.9704,2.939407 -12.321162,6.989815 -14.244092,10.782287 -0.786548,1.551284 -1.15392,3.754953 -1.001488,6.008936 0.1836,2.714887 0.730403,4.389183 2.098061,6.425964 0.890741,1.326518 1.101598,1.861066 1.044898,2.64635 -0.09523,1.318955 0.408995,1.717939 1.888776,1.496033 0.808908,-0.121303 1.389827,-0.04387 2.014347,0.267684 0.895799,0.446879 1.095533,0.441034 5.055504,-0.140562 1.283171,-0.188458 4.669176,0.06584 4.976958,0.373621 0.06273,0.06273 0.218305,0.684916 0.345716,1.382863 0.3356,1.838293 1.791057,4.610745 3.930512,7.48688 4.1941,5.638297 5.02438,9.441773 3.17086,14.525212 -0.72487,1.98801 -2.00385,3.506605 -3.6065,4.282427 -0.952475,0.461089 -1.844717,0.624401 -3.901566,0.7152 -4.165391,0.18387 -6.841419,-0.855183 -8.187097,-3.179132 -1.73668,-2.999201 -2.469478,-7.766101 -1.639179,-10.66395 0.547762,-1.911781 1.793087,-4.248761 3.469558,-6.510197 1.82617,-2.463384 2.499598,-4.042264 2.465999,-5.784143 -0.01546,-0.800365 -0.07499,-1.217084 -0.132292,-0.926042 -0.581771,2.954311 -0.77362,3.485848 -1.79524,4.976958 -0.616979,0.90052 -2.054331,2.82825 -3.194119,4.283459 -2.691611,3.436461 -3.155611,4.468799 -3.147613,7.011458 0.0068,2.24686 0.652074,4.11176 2.331125,6.73654 0.539729,0.843741 0.883684,1.619396 0.764294,1.723925 -0.119399,0.104531 -1.208268,0.993671 -2.420006,1.97559 -2.12457,1.721631 -2.292948,1.803583 -4.713409,2.298052 -4.17694,0.853289 -6.445084,2.008238 -6.445084,3.282483 0,0.087 0.019,0.17393 0.04651,0.26045 C 71.895816,98.242829 69.923715,95.787295 68.399003,92.992329 59.80085,79.427968 65.346355,61.197888 77.263577,51.658418 80.82699,42.832127 89.904493,38.10161 98.417324,35.167952 Z m -2.720764,3.651456 c 0.07693,0 0.140044,0.392597 0.140044,0.872816 0,1.645703 0.849771,1.890988 2.919201,0.842325 1.349935,-0.684057 1.489365,-0.623004 1.073319,0.471289 -0.21464,0.564547 -0.02677,0.844743 1.720306,2.564701 4.02038,3.957955 5.46661,9.041503 3.90726,13.732497 -0.60513,1.820436 -1.73944,4.300741 -1.92081,4.199742 -1.14943,-0.640054 -3.601324,-1.625733 -5.026055,-2.020547 -0.987568,-0.273669 -2.171753,-0.69198 -2.631364,-0.929661 -0.459618,-0.23768 -0.835607,-0.322823 -0.835607,-0.189134 0,0.283355 0.08973,0.322019 3.571875,1.535824 5.025841,1.751899 7.689601,3.91981 5.955711,4.847764 -0.38775,0.207513 -0.89422,0.178639 -1.91823,-0.110069 -4.279961,-1.206688 -10.342136,-1.219568 -14.885397,-0.03152 -1.455211,0.380531 -2.82443,0.742354 -3.042709,0.804084 -0.583311,0.164965 -1.322916,-0.348321 -1.322916,-0.918289 0,-1.091507 1.388822,-2.158545 5.201232,-3.99614 2.08716,-1.006022 3.794601,-1.880454 3.794601,-1.943034 0,-0.262831 -6.621679,2.736078 -7.739578,3.505214 -0.67065,0.461412 -1.281642,0.839223 -1.35754,0.839223 -0.263822,0 -1.923683,-3.050188 -2.365232,-4.346503 -0.502129,-1.474192 -0.585216,-4.906383 -0.163296,-6.73654 0.911048,-3.951875 3.625884,-6.931753 9.112104,-10.001973 2.576301,-1.441764 5.588183,-2.992067 5.813081,-2.992067 z M 85.196428,51.519924 c -0.104021,-3.73e-4 -0.327541,0.257707 -0.496612,0.573609 -0.25268,0.472149 -0.226161,0.633751 0.148828,0.907955 0.401071,0.293267 0.420494,0.500202 0.160713,1.711523 -0.316688,1.476666 -0.173799,2.846028 0.418581,4.016293 0.202568,0.400182 0.42871,0.727604 0.502812,0.727604 0.07414,0 0.005,-0.243017 -0.153998,-0.540017 -0.40209,-0.751313 -0.401812,-3.503361 5.18e-4,-4.474662 0.18368,-0.44345 0.369377,-0.806154 0.412377,-0.806154 0.316461,0 2.767143,1.217567 4.730462,2.350243 2.620338,1.511726 2.409809,1.0443 -0.523999,-1.163751 -1.889062,-1.421749 -4.848442,-3.301341 -5.199682,-3.302643 z m 17.169492,0.02635 c -0.15802,0.01463 -0.3836,0.126537 -0.76326,0.343649 -2.13026,1.218211 -5.195188,3.400023 -6.037357,4.297929 l -0.919324,0.980302 0.926042,-0.586528 c 1.834758,-1.162275 5.621369,-2.977224 5.948989,-2.851505 0.81884,0.314217 0.68832,2.989234 -0.25683,5.263761 -0.34117,0.821029 0.35952,0.501727 0.80977,-0.368969 0.50086,-0.968542 0.57624,-3.594119 0.12712,-4.433321 -0.33987,-0.63504 -0.17507,-1.084689 0.39791,-1.084689 0.43091,0 0.49928,-0.726797 0.12402,-1.320331 -0.10867,-0.171892 -0.19905,-0.254929 -0.35708,-0.240298 z M 91.029662,57.14645 c -0.09502,0.01243 -0.189399,0.05711 -0.272851,0.14056 -0.149201,0.149265 -0.191852,0.400939 -0.09405,0.559139 0.25935,0.419637 0.940512,0.351925 0.940512,-0.09353 0,-0.387974 -0.288541,-0.643453 -0.573609,-0.606166 z m 4.897893,0.05013 c -0.04363,-0.0017 -0.0845,0.0075 -0.120923,0.02997 -0.129029,0.07975 -0.234611,0.316375 -0.234611,0.526068 0,0.38893 0.564743,0.522015 0.879533,0.207222 0.20936,-0.209362 -0.218591,-0.75157 -0.523999,-0.763262 z m -1.690854,4.014742 c -1.367796,0.0064 -2.736255,0.09414 -2.90008,0.257866 -0.1388,0.138705 1.064035,0.236677 2.911967,0.236677 2.090619,0 3.059875,-0.08852 2.885094,-0.263548 -0.16197,-0.162193 -1.529183,-0.237427 -2.896981,-0.230995 z m 13.010059,11.260812 c 0.0809,0.02676 -0.003,0.551545 -0.19947,1.222148 -0.20969,0.715314 -0.4665,2.23185 -0.57051,3.36982 l -0.18913,2.069124 -0.76172,-1.173054 c -0.41882,-0.645181 -1.00473,-1.440712 -1.30224,-1.767853 l -0.54105,-0.594794 1.67328,-1.521873 c 0.92009,-0.837022 1.76281,-1.558068 1.87275,-1.601967 0.007,-0.0027 0.0127,-0.0033 0.0181,-0.0016 z m -3.84938,3.979601 c 0.32631,0.04482 1.59092,1.809461 2.20504,3.113505 0.61331,1.30224 0.68523,1.775048 0.68523,4.497917 0,2.631019 -0.0806,3.203802 -0.59738,4.233333 -0.32867,0.654852 -0.53172,0.892966 -0.45062,0.529167 0.0811,-0.3638 0.21665,-1.852091 0.30075,-3.307292 0.17752,-3.071159 -0.24446,-5.171223 -1.50791,-7.503935 -0.4319,-0.797428 -0.7414,-1.494126 -0.6873,-1.548225 0.0129,-0.01295 0.0304,-0.01746 0.0522,-0.01447 z m -16.653761,3.180686 c 0.0844,0.0075 0.06417,0.25028 -0.131257,0.764294 -0.40014,1.052509 -0.604044,5.01674 -0.337966,6.576859 0.27364,1.604441 0.189339,2.022009 -0.20102,0.995288 -0.993931,-2.6143 -1.002374,-5.068686 -0.0248,-7.278627 0.304659,-0.688702 0.586531,-1.067485 0.695047,-1.057814 z m 46.310871,1.600419 c 0.3211,0.0082 0.66413,0.04897 1.02888,0.122473 1.30359,0.262684 2.19147,0.800174 2.66392,1.612305 0.47244,0.812128 0.56167,1.947555 0.26768,3.40651 l -0.42323,2.102197 -7.56336,-1.523939 0.42374,-2.102197 c 0.29535,-1.465704 0.8174,-2.479789 1.56683,-3.042192 0.46627,-0.35192 1.04042,-0.542684 1.72186,-0.572574 0.10222,-0.0045 0.20664,-0.0053 0.31368,-0.0026 z m -71.394612,0.729155 0.663009,2.039151 c 0.462288,1.421914 0.504944,2.562061 0.128159,3.419946 -0.373499,0.856816 -1.189297,1.489565 -2.447396,1.898592 -1.264647,0.411157 -2.302171,0.378934 -3.112471,-0.09664 -0.81031,-0.475523 -1.445162,-1.421159 -1.905312,-2.836519 l -0.663006,-2.039151 z m 71.160512,0.368451 c -0.52875,0.01206 -0.97085,0.140681 -1.3255,0.385508 -0.57013,0.38766 -0.96019,1.103082 -1.17047,2.146639 l -0.24908,1.236099 5.88129,1.184941 0.24909,-1.236101 c 0.21028,-1.043554 0.12796,-1.854195 -0.24754,-2.43241 -0.37481,-0.581594 -1.07245,-0.975278 -2.09237,-1.180806 -0.37994,-0.07656 -0.72816,-0.111107 -1.04542,-0.10387 z m -71.653505,0.889352 -5.705594,1.854668 0.389642,1.199409 c 0.329136,1.012378 0.799248,1.678424 1.410247,1.99781 0.612072,0.32266 1.413002,0.322694 2.402438,10e-4 0.982888,-0.319553 1.625039,-0.788858 1.927013,-1.4087 0.306369,-0.617633 0.295032,-1.432951 -0.0341,-2.445329 z m 67.683205,4.283458 0.82166,0.310576 -1.35444,3.586861 2.13682,0.807188 1.29811,-3.437517 0.82166,0.310576 -1.29812,3.437514 2.61535,0.987536 1.38751,-3.674192 0.82217,0.310574 -1.75648,4.650364 -6.84919,-2.586924 4.97747,6.19652 -0.59841,1.021128 -8.14576,-1.358574 0.55139,-0.941028 6.83989,1.174607 -4.36614,-5.397087 0.46819,-0.798917 -0.0951,-0.03566 z m -65.035821,0.930693 0.476456,0.93431 -4.174937,2.130102 c -0.73652,0.375732 -1.199454,0.779912 -1.388546,1.212848 -0.186026,0.431371 -0.126484,0.946189 0.1788,1.544608 0.303715,0.595352 0.68517,0.944353 1.143601,1.046964 0.461502,0.101039 1.060275,-0.0361 1.796788,-0.411861 l 4.174939,-2.130102 0.476973,0.934826 -4.290177,2.188498 c -0.896101,0.457139 -1.686136,0.579644 -2.370399,0.367935 -0.682649,-0.208648 -1.245235,-0.745347 -1.686719,-1.610754 -0.443008,-0.868479 -0.549095,-1.642018 -0.318841,-2.320272 0.231817,-0.675179 0.79579,-1.241467 1.691886,-1.698603 z m 40.008411,3.941879 c 0.091,-0.0061 0.30326,0.160565 0.54829,0.443902 0.3267,0.377777 1.43383,1.294463 2.46031,2.037083 1.02649,0.742622 2.01017,1.624245 2.18643,1.959054 0.59909,1.13805 0.83763,2.370926 0.55914,2.891295 -0.31965,0.597278 -0.52924,0.594328 -2.23087,-0.03359 -1.64065,-0.60539 -2.54807,-0.633587 -4.20905,-0.129706 -1.3129,0.39828 -4.251111,0.532494 -5.039482,0.22996 -0.759881,-0.29159 -1.247267,-1.607291 -1.059368,-2.860292 l 0.171566,-1.144116 1.718241,-0.465087 c 1.748753,-0.473361 4.845763,-2.302055 4.847763,-2.862874 1.8e-4,-0.04247 0.0167,-0.06359 0.047,-0.06563 z m -15.365471,0.66766 0.756028,0.537951 c 1.325539,0.943861 3.507359,1.827821 4.958868,2.00918 0.774121,0.09672 1.472878,0.281945 1.552877,0.411345 0.203261,0.329599 0.206481,2.161336 0.0047,2.797243 -0.09241,0.291151 -0.468791,0.666459 -0.836641,0.83406 -0.933479,0.425303 -3.486751,0.379923 -5.033801,-0.0894 -1.72611,-0.523632 -2.479667,-0.500412 -4.272608,0.129706 -2.30341,0.809547 -2.634435,0.672007 -2.32699,-0.966864 0.31064,-1.655821 0.735931,-2.21923 2.986382,-3.956349 z m -22.361425,2.228287 c 0.121984,0.0011 0.24375,0.0093 0.365353,0.02377 0.975587,0.114094 1.810406,0.640718 2.504755,1.579748 0.274486,0.371181 0.482788,0.756954 0.624768,1.157552 0.14681,0.401328 0.228598,0.818608 0.244946,1.25212 l -0.885216,0.65474 c 0.05422,-0.477136 0.02784,-0.924443 -0.07958,-1.342035 -0.10537,-0.414819 -0.291298,-0.802616 -0.557588,-1.162722 -0.52438,-0.709118 -1.143267,-1.091055 -1.856734,-1.146183 -0.7107,-0.05717 -1.476069,0.217413 -2.295983,0.823722 -0.81715,0.604268 -1.30406,1.255572 -1.460378,1.953887 -0.153538,0.696261 0.03218,1.398766 0.556556,2.107886 0.26629,0.3601 0.582515,0.65157 0.948261,0.87385 0.3678,0.22505 0.787268,0.38128 1.259356,0.46922 l -0.876432,0.64854 c -0.416568,-0.14614 -0.79651,-0.34717 -1.139981,-0.60307 -0.341429,-0.25311 -0.647391,-0.56246 -0.917774,-0.9281 -0.694391,-0.93903 -0.954786,-1.890966 -0.780833,-2.855129 0.176731,-0.966208 0.762566,-1.816942 1.757,-2.552301 0.872551,-0.645234 1.735622,-0.96376 2.589506,-0.955497 z m 58.304446,3.348116 c 0.97103,-0.0028 1.91209,0.401521 2.82309,1.212329 0.90842,0.80853 1.41877,1.69632 1.53117,2.66341 0.10983,0.96479 -0.19495,1.8512 -0.91416,2.65926 -0.72147,0.81064 -1.56864,1.21831 -2.54196,1.2237 -0.97102,0.003 -1.91208,-0.401 -2.82308,-1.21181 -0.91101,-0.81081 -1.42136,-1.6986 -1.53117,-2.6634 -0.11011,-0.96966 0.19577,-1.86 0.91725,-2.670644 0.7192,-0.808059 1.56526,-1.212315 2.53886,-1.212845 z m -53.81118,0.54932 0.750342,0.726054 -2.267561,2.343525 4.755779,0.0636 0.965317,0.93431 -5.252908,-0.0775 0.08526,5.81308 -0.987536,-0.95601 -0.07958,-5.24671 -2.583823,2.67064 -0.749824,-0.72606 z m 53.47064,0.444418 c -0.60271,0.02653 -1.12437,0.287507 -1.56528,0.782901 -0.50388,0.56615 -0.69376,1.20443 -0.56948,1.91461 0.12653,0.70761 0.55376,1.38528 1.28209,2.03347 0.72572,0.6459 1.44723,0.99092 2.16473,1.03456 0.7198,0.0411 1.33166,-0.22191 1.83555,-0.78807 0.50389,-0.56616 0.69162,-1.20131 0.56276,-1.90634 -0.12653,-0.70761 -0.55272,-1.38447 -1.27848,-2.03037 -0.72828,-0.64819 -1.45135,-0.994003 -2.16886,-1.03766 -0.0894,-0.0058 -0.17693,-0.0069 -0.26303,-0.0031 z m -6.19394,1.660881 c -11.27467,10.60819 -30.151486,9.89637 -42.045494,0.45889 2.639058,1.28018 8.155596,2.33224 14.856973,2.70733 6.439879,0.36045 15.126171,-0.0521 20.240621,-0.96119 3.30119,-0.58675 5.69726,-1.36652 6.9479,-2.20503 z m 0.9431,2.33991 c 0.0732,-0.004 0.14495,-0.004 0.216,0 0.5684,0.0351 1.07555,0.35036 1.52136,0.9462 0.291,0.38892 0.44177,0.77978 0.45165,1.17253 0.0126,0.39069 -0.11654,0.76513 -0.38706,1.12241 0.22471,-0.0735 0.49549,-0.0742 0.81236,-0.002 0.31962,0.0707 0.69496,0.21603 1.12603,0.43564 l 2.11149,1.05368 -0.89813,0.67179 -1.97611,-0.99374 c -0.51371,-0.26104 -0.91759,-0.38654 -1.21181,-0.37723 -0.29147,0.007 -0.60278,0.1342 -0.93379,0.38189 l -0.91003,0.68109 1.95337,2.61121 -0.83561,0.62529 -4.62193,-6.1774 1.8867,-1.4118 c 0.6179,-0.46231 1.18309,-0.7091 1.69551,-0.74001 z m -42.658899,0.58549 5.593974,3.36311 -0.452686,0.75292 -2.347661,-1.41128 -3.522782,5.85959 -0.898654,-0.54054 3.522784,-5.85959 -2.347661,-1.41128 z m 42.465109,0.43305 c -0.30621,0.008 -0.63566,0.14459 -0.98806,0.40825 l -1.05109,0.78651 1.64072,2.19263 1.0511,-0.786 c 0.40273,-0.30133 0.63695,-0.62105 0.7028,-0.95859 0.0665,-0.34237 -0.035,-0.69439 -0.30541,-1.05575 -0.27036,-0.36136 -0.57725,-0.55565 -0.92035,-0.58291 -0.0428,-0.004 -0.086,-0.005 -0.12971,-0.004 z m -4.223,1.94614 c 0.15525,0.004 0.30432,0.0247 0.447,0.0625 0.57227,0.14687 1.02847,0.55711 1.36891,1.23041 0.34355,0.67945 0.4049,1.29329 0.18397,1.84123 -0.21787,0.54639 -0.71246,1.01438 -1.48415,1.40457 l -1.1715,0.59221 1.39939,2.76727 -0.93172,0.47077 -3.48144,-6.88485 2.10323,-1.0635 c 0.57876,-0.29262 1.10058,-0.43271 1.56631,-0.42064 z m -0.41548,0.9648 c -0.2384,0.0105 -0.49284,0.0842 -0.76378,0.22117 l -1.1715,0.59221 1.30793,2.58744 1.17151,-0.59221 c 0.43349,-0.21919 0.71184,-0.50078 0.83509,-0.84491 0.12324,-0.34413 0.0802,-0.7239 -0.12971,-1.13895 -0.20831,-0.41197 -0.48798,-0.67041 -0.83819,-0.77514 -0.13133,-0.0393 -0.26831,-0.0559 -0.41135,-0.0496 z m -31.215147,0.26975 1.093991,0.45061 -0.220659,8.25376 -1.003038,-0.41341 0.103867,-2.09754 -3.215307,-1.32499 -1.404048,1.56218 -1.017508,-0.41909 z m 26.413377,0.971 c 0.3408,-0.007 0.64608,0.0493 0.91622,0.16846 0.5425,0.234 0.92999,0.70981 1.16169,1.42782 0.23382,0.72458 0.199,1.34046 -0.10439,1.84743 -0.30011,0.50591 -0.86172,0.89148 -1.68465,1.15704 l -1.24902,0.40359 0.95188,2.95073 -0.99322,0.32039 -2.36937,-7.3427 2.24224,-0.72348 c 0.41147,-0.13278 0.78782,-0.20248 1.12862,-0.20928 z m -26.260413,0.20412 -2.771926,3.01067 2.623098,1.08055 z m 3.619934,0.26717 2.292366,0.54621 c 0.841171,0.20043 1.430432,0.54256 1.768366,1.02682 0.342085,0.4817 0.426032,1.08973 0.251148,1.82366 -0.176472,0.74063 -0.526481,1.24877 -1.049031,1.52445 -0.519189,0.27649 -1.199015,0.31412 -2.040186,0.11369 l -1.276924,-0.30386 -0.71882,3.01584 -1.015442,-0.24185 z m 22.419299,0.44596 c -0.19799,-0.002 -0.41274,0.0339 -0.64388,0.10852 l -1.24903,0.40308 0.89039,2.759 1.24902,-0.40307 c 0.46228,-0.14918 0.78079,-0.38458 0.95601,-0.70539 0.17522,-0.3208 0.19142,-0.70201 0.0486,-1.14463 -0.14176,-0.43933 -0.37723,-0.7382 -0.70693,-0.89607 -0.16485,-0.0789 -0.34616,-0.11927 -0.54416,-0.12144 z m -5.9309,0.53951 4.07262,7.18199 -1.0728,0.16433 -0.99374,-1.85054 -3.43752,0.52607 -0.39584,2.06241 -1.08779,0.16639 1.74511,-8.07185 z m -15.671914,0.0909 -0.671793,2.81998 1.276925,0.30437 c 0.472535,0.11259 0.866534,0.0772 1.182875,-0.10593 0.316336,-0.18316 0.528852,-0.50102 0.636653,-0.95343 0.107001,-0.44907 0.06021,-0.82662 -0.139528,-1.13275 -0.199757,-0.30613 -0.535678,-0.5158 -1.008208,-0.62839 z m 4.297413,0.0816 4.860684,0.41342 -0.07441,0.8754 -3.820438,-0.32505 -0.193786,2.27583 3.660759,0.31161 -0.07441,0.8754 -3.660759,-0.31161 -0.237193,2.78536 3.913454,0.33331 -0.07493,0.8754 -4.953188,-0.42168 z m 10.942481,0.9338 -0.81907,4.00957 2.80448,-0.42891 z"
       id="path27"
       inkscape:connector-curvature="0" />
    <g
       aria-label="DUCK TAPE APPROVED"
       transform="rotate(-10.456613,-354.53195,204.69498)"
       style="font-style:normal;font-weight:normal;font-size:10.58333302px;line-height:1.25;font-family:sans-serif;letter-spacing:0px;word-spacing:0px;fill:#000000;fill-opacity:1;stroke:none;stroke-width:0.26458332"
       id="text60-7" />
  </g>
</svg>
