<?xml version="1.0" encoding="UTF-8" standalone="no"?>
<!-- Generator: Adobe Illustrator 16.0.4, SVG Export Plug-In . SVG Version: 6.00 Build 0)  -->

<svg
   xmlns:dc="http://purl.org/dc/elements/1.1/"
   xmlns:cc="http://creativecommons.org/ns#"
   xmlns:rdf="http://www.w3.org/1999/02/22-rdf-syntax-ns#"
   xmlns:svg="http://www.w3.org/2000/svg"
   xmlns="http://www.w3.org/2000/svg"
   xmlns:sodipodi="http://sodipodi.sourceforge.net/DTD/sodipodi-0.dtd"
   xmlns:inkscape="http://www.inkscape.org/namespaces/inkscape"
   version="1.2"
   x="0px"
   y="0px"
   width="15.514696mm"
   height="11.045016mm"
   viewBox="0 0 58.63822 41.744944"
   xml:space="preserve"
   id="svg50"
   sodipodi:docname="make-zurich-logo-BW.svg"
   inkscape:version="0.92.2 (5c3e80d, 2017-08-06)"><metadata
     id="metadata56"><rdf:RDF><cc:Work
         rdf:about=""><dc:format>image/svg+xml</dc:format><dc:type
           rdf:resource="http://purl.org/dc/dcmitype/StillImage" /><dc:title></dc:title></cc:Work></rdf:RDF></metadata><defs
     id="defs54" /><sodipodi:namedview
     pagecolor="#ffffff"
     bordercolor="#666666"
     borderopacity="1"
     objecttolerance="10"
     gridtolerance="10"
     guidetolerance="10"
     inkscape:pageopacity="0"
     inkscape:pageshadow="2"
     inkscape:window-width="2241"
     inkscape:window-height="1522"
     id="namedview52"
     showgrid="false"
     units="mm"
     fit-margin-top="0"
     fit-margin-left="0"
     fit-margin-right="0"
     fit-margin-bottom="0"
     inkscape:zoom="13.633136"
     inkscape:cx="20.117531"
     inkscape:cy="18.006586"
     inkscape:window-x="1368"
     inkscape:window-y="187"
     inkscape:window-maximized="0"
     inkscape:current-layer="monochrome" /><g
     id="Ebene_1"
     transform="translate(-1.809,-19.063028)" /><g
     id="g82"
     transform="matrix(0.72818992,0,0,0.72818992,-1.3172956,-1.4592926)"
     inkscape:label="SilkS"><g
       id="monochrome"><path
         d="m 70.633,14.475 c 0.04446,-1.478 -1.361398,-2.740862 -2.821995,-2.592 -5.674796,0.0022 -11.349706,-0.0045 -17.024431,0.0034 -1.531965,0.02927 -2.762293,1.620796 -2.405933,3.111145 0.23503,1.30559 1.561591,2.211729 2.859952,2.069484 5.644293,-0.0023 11.288706,0.0046 16.932924,-0.0035 1.343135,-0.04285 2.486545,-1.243359 2.459483,-2.588538 z m -21.51,0 c -0.05725,-1.253708 1.466229,-2.162061 2.541792,-1.514157 1.11828,0.543736 1.203257,2.292147 0.141979,2.940846 C 50.715869,16.686655 49.084165,15.819158 49.123,14.475 Z m 17.183,0 c -0.05727,-1.253362 1.466164,-2.162013 2.541442,-1.514157 1.117536,0.544326 1.202352,2.291733 0.141818,2.940846 C 67.898934,16.686848 66.266969,15.818476 66.306,14.475 Z"
         id="path3"
         inkscape:connector-curvature="0" /><path
         d="m 70.633,35.1 c 0.04436,-1.478013 -1.361048,-2.741814 -2.821995,-2.593 -5.674796,0.0022 -11.349706,-0.0045 -17.024431,0.0034 -1.532023,0.02959 -2.762056,1.621487 -2.405933,3.111812 0.235279,1.305357 1.561845,2.210971 2.859952,2.068814 5.644293,-0.0023 11.288706,0.0046 16.932924,-0.0035 C 69.516182,37.644667 70.659921,36.444931 70.633,35.1 Z m -21.51,0 c -0.05722,-1.253778 1.46654,-2.16051 2.541792,-1.513389 1.118557,0.543211 1.203148,2.291961 0.141979,2.940342 C 50.715719,37.311306 49.083762,36.444594 49.123,35.1 Z m 17.183,0 c -0.05723,-1.253432 1.466475,-2.160462 2.541442,-1.513389 1.117813,0.543801 1.202242,2.291547 0.141818,2.940342 C 67.898783,37.311498 66.266566,36.443911 66.306,35.1 Z"
         id="path5"
         inkscape:connector-curvature="0" /><path
         d="m 69.873,12.643 c -1.097969,-1.178712 -3.169046,-0.9169 -4.01358,0.419925 -5.699918,6.871038 -11.409849,13.736119 -17.103483,20.610889 -1.101768,1.520509 0.03999,3.909974 1.916151,4.005327 1.144672,0.164699 2.074459,-0.61085 2.690927,-1.48201 5.61294,-6.766023 11.23543,-13.52647 16.842376,-20.295986 C 70.881212,14.909732 70.737829,13.476974 69.873,12.643 Z M 49.65,36.37 c -1.041235,-0.936739 -0.346256,-2.868484 1.052017,-2.930125 1.376245,-0.2042 2.425683,1.539001 1.602483,2.660164 C 51.744323,36.999213 50.379174,37.140895 49.65,36.37 Z M 66.814,15.701 c -1.039684,-0.936891 -0.34617,-2.868503 1.052017,-2.930125 1.376176,-0.20424 2.425604,1.539175 1.602483,2.660205 -0.560112,0.899556 -1.924761,1.038769 -2.6545,0.26992 z"
         id="path7"
         inkscape:connector-curvature="0" /><g
         id="g21"><path
           d="m 16.123,35.117001 c 0.03922,1.03305 -1.089393,1.863356 -2.063764,1.521851 -0.997842,-0.26801 -1.459309,-1.591086 -0.843996,-2.421327 0.550938,-0.874418 1.951188,-0.924005 2.5626,-0.09075 0.22234,0.278711 0.346047,0.633744 0.34516,0.990225 z"
           id="circle9"
           inkscape:connector-curvature="0" /><path
           d="m 15.667,13.357 c -0.430928,-0.442331 -1.128228,-0.586795 -1.701405,-0.360222 -0.579783,0.216244 -0.997889,0.797821 -1.014572,1.417073 -0.04387,0.731439 0.522137,1.423388 1.231907,1.571045 0.598544,0.141765 1.262124,-0.10678 1.624004,-0.602966 0.348694,-0.456853 0.423138,-1.113597 0.149582,-1.625119 C 15.881771,13.60945 15.783635,13.474032 15.667,13.357 Z"
           id="path11"
           inkscape:connector-curvature="0" /><path
           d="m 24.913,23.262 c -0.62369,-0.005 -1.221887,0.398999 -1.457472,0.975191 -0.2484,0.57411 -0.115104,1.287541 0.328008,1.73016 0.417583,0.440304 1.098989,0.5996 1.667776,0.386855 0.581425,-0.202397 1.011501,-0.769017 1.047344,-1.384036 0.0499,-0.594451 -0.269167,-1.197596 -0.787028,-1.492994 C 25.470807,23.33592 25.191978,23.262105 24.913,23.262 Z"
           id="path13"
           inkscape:connector-curvature="0" /><path
           d="M 24.409,2.259 C 15.426369,2.1355234 6.7864095,7.9874258 3.4819252,16.325373 0.09707686,24.347389 1.9659637,34.221279 8.0566951,40.445544 13.979259,46.82152 23.73802,49.167036 31.911554,46.180965 40.477277,43.264798 46.766941,34.790841 46.992394,25.732306 47.449135,16.931963 42.163377,8.227638 34.198476,4.4911472 31.159011,3.0199341 27.785282,2.2545443 24.409,2.259 Z M 5.893,12.681 C 10.602523,5.2909124 19.976751,1.3540459 28.555401,3.0782888 31.318806,3.602783 33.9749,4.670884 36.343,6.187 35.787707,7.9129817 34.37561,5.8461481 33.264843,5.6602665 25.098563,1.7376232 14.543574,3.9105134 8.6242778,10.790165 7.5382084,11.365225 7.0930267,14.178575 5.8342405,13.244727 5.6405098,13.105907 5.2344851,13.01594 5.893,12.681 Z M 31.546,45.84 C 22.943268,48.929391 12.673327,45.871188 7.0718532,38.68067 5.5433078,36.761869 4.3441242,34.5838 3.525,32.272 c 1.497801,-1.021182 1.3434369,1.476761 2.1060334,2.305246 4.0387288,8.108959 13.7044646,12.874803 22.6004076,11.077343 1.210163,0.212703 3.290327,-1.735158 3.709572,-0.22422 C 32.214844,45.80725 31.755354,45.69727 31.546,45.84 Z m 6.476,-31.356 c -0.0094,6.964402 0.01877,13.929755 -0.01407,20.893563 -0.114266,2.319369 -3.423392,3.322291 -4.802102,1.450868 -1.046671,-1.422206 -0.473664,-3.283765 -0.621831,-4.924625 0,-3.621602 0,-7.243204 0,-10.864806 -2.04282,1.997158 -3.998927,4.09235 -6.098641,6.025219 C 25.08469,28.036352 23.245245,27.364223 22.299242,26.09013 20.616161,24.406754 18.933081,22.723377 17.25,21.04 c -0.03613,4.848058 0.07276,9.705293 -0.05535,14.547539 -0.346229,2.291243 -3.727148,2.963077 -4.9179,0.972266 -0.820093,-1.470379 -0.331655,-3.232343 -0.464748,-4.843846 0.0096,-5.859717 -0.01901,-11.7204 0.01406,-17.579522 0.114088,-2.246512 3.271881,-3.313457 4.704454,-1.553216 2.748604,2.853583 5.59932,5.614934 8.38749,8.432779 2.966432,-2.920511 5.845576,-5.937154 8.868,-8.796 1.715069,-1.23505 4.316481,0.136112 4.236,2.264 z m 2.32,25.778 c -1.414462,1.531787 -1.547944,-0.859318 -0.111401,-1.37709 6.005098,-6.562535 7.051752,-17.030858 2.456656,-24.655258 -0.524686,-1.575323 -2.76668,-3.042433 -2.79999,-4.3227828 1.057404,-0.9705107 1.997328,1.7676828 2.825983,2.4546338 5.35937,7.612379 5.100552,18.623951 -0.682074,25.942571 C 41.506616,38.988658 40.942072,39.642557 40.342,40.262 Z"
           id="path15"
           inkscape:connector-curvature="0" /><path
           d="m 34.84,16.005 c 0.586483,0.195125 1.269816,-0.01249 1.664235,-0.483819 0.42608,-0.483892 0.50374,-1.232664 0.191371,-1.795724 -0.156692,-0.291477 -0.406339,-0.531777 -0.706356,-0.672207 -0.581043,-0.2976 -1.338314,-0.166057 -1.797265,0.294676 -0.458415,0.436171 -0.611662,1.157089 -0.36258,1.740312 0.177965,0.436428 0.559927,0.780488 1.010595,0.916762 z"
           id="path17"
           inkscape:connector-curvature="0" /><path
           d="m 35.305,33.582 c -0.633398,-0.0087 -1.24279,0.403698 -1.476013,0.991602 -0.241581,0.571853 -0.103465,1.276765 0.335939,1.715283 0.422797,0.444529 1.112949,0.602069 1.686561,0.384231 0.595118,-0.211463 1.028463,-0.804419 1.044342,-1.43652 0.03205,-0.626742 -0.348898,-1.245971 -0.919221,-1.505504 C 35.7673,33.632777 35.536217,33.581712 35.305,33.582 Z"
           id="path19"
           inkscape:connector-curvature="0" /></g><g
         id="g31"><path
           d="m 11.812,58.798 c 0.0016,-2.340555 -0.0033,-4.681256 0.0025,-7.021719 0.01464,-0.470327 0.708767,-0.658542 0.958789,-0.258408 0.536766,1.030144 1.042848,2.077676 1.567735,3.11455 0.495675,0.990526 0.991349,1.981051 1.487023,2.971577 1.004,-2.006333 2.008,-4.012667 3.012,-6.019 0.185171,-0.392088 0.817384,-0.370522 0.964,0.038 0.07878,0.333446 0.02343,0.684465 0.04,1.025845 -0.0016,2.067747 0.0032,4.135639 -0.0024,6.203294 -0.01874,0.432035 -0.617221,0.643027 -0.905564,0.322861 -0.243568,-0.246494 -0.129399,-0.613014 -0.156,-0.92223 0,-1.38759 0,-2.77518 0,-4.16277 -0.829667,1.658333 -1.659333,3.316667 -2.489,4.975 -0.204973,0.408875 -0.863826,0.319933 -0.979524,-0.115936 C 14.500317,57.329709 13.689159,55.710355 12.878,54.091 c -0.0016,1.587361 0.0032,3.174869 -0.0024,4.762139 -0.01881,0.432166 -0.616991,0.642846 -0.905564,0.322861 -0.102682,-0.09723 -0.160494,-0.236723 -0.158,-0.378 z"
           id="path23"
           inkscape:connector-curvature="0" /><path
           d="m 20.275,58.557 c 0.901341,-2.312792 1.794054,-4.629304 2.700789,-6.93977 0.151223,-0.393397 0.772032,-0.431886 0.952477,-0.04093 0.428041,1.054855 0.827466,2.122309 1.244412,3.182049 0.500766,1.292171 1.006407,2.582549 1.504119,3.875844 0.142612,0.389349 -0.271708,0.814279 -0.663908,0.674664 C 25.659921,59.19774 25.61718,58.795531 25.482226,58.50496 25.237484,57.87664 24.992742,57.24832 24.748,56.62 c -0.856667,0 -1.713333,0 -2.57,0 -0.320092,0.809361 -0.6295,1.623455 -0.956266,2.429859 -0.179834,0.367795 -0.76587,0.372867 -0.942724,1.76e-4 -0.08103,-0.151242 -0.07748,-0.339591 -0.004,-0.493035 z m 4.06,-3.002 c -0.291333,-0.751 -0.582667,-1.502 -0.874,-2.253 -0.291,0.751 -0.582,1.502 -0.873,2.253 0.582333,0 1.164667,0 1.747,0 z"
           id="path25"
           inkscape:connector-curvature="0" /><path
           d="m 27.026,51.831 c -0.02211,-0.408999 0.497297,-0.685846 0.826469,-0.444672 0.294987,0.178167 0.232046,0.539561 0.237531,0.830035 0,0.861879 0,1.723758 0,2.585637 1.127051,-1.124748 2.249592,-2.254202 3.379469,-3.376002 0.298927,-0.281497 0.858387,-0.06552 0.873937,0.350283 0.04353,0.351181 -0.29276,0.542107 -0.493698,0.771658 -0.763236,0.764687 -1.526472,1.529374 -2.289708,2.294061 0.902281,1.225583 1.809192,2.447925 2.708576,3.675535 0.236242,0.347969 -0.09646,0.882893 -0.516488,0.809904 C 31.418673,59.29945 31.29431,58.954111 31.102509,58.731842 30.334006,57.689895 29.565503,56.647947 28.797,55.606 c -0.235667,0.236 -0.471333,0.472 -0.707,0.708 -0.0016,0.846028 0.0032,1.692202 -0.0024,2.538139 -0.01943,0.431194 -0.617445,0.643411 -0.905563,0.322861 -0.236164,-0.233448 -0.133218,-0.582447 -0.156,-0.877972 0,-2.155343 0,-4.310685 0,-6.466028 z"
           id="path27"
           inkscape:connector-curvature="0" /><path
           d="m 37.818,58.266 c 0.432184,-0.02525 0.702732,0.549501 0.413232,0.868971 -0.22133,0.280303 -0.598195,0.174034 -0.905844,0.195029 -1.402261,-0.0017 -2.80468,0.0035 -4.206841,-0.0026 -0.321666,-0.01736 -0.520348,-0.347809 -0.475547,-0.647633 0.0017,-2.301143 -0.0035,-4.602451 0.0026,-6.903492 0.01744,-0.322566 0.346609,-0.522344 0.647633,-0.477281 1.526382,0.0016 3.052908,-0.0032 4.579199,0.0024 0.431949,0.0186 0.643222,0.617784 0.322574,0.905564 -0.236663,0.23816 -0.590277,0.132188 -0.889317,0.156 -1.199228,0 -2.398455,0 -3.597683,0 0,0.806333 0,1.612667 0,2.419 1.001791,0.0016 2.003726,-0.0032 3.005426,0.0024 0.432586,0.01882 0.642776,0.618145 0.322574,0.906564 -0.237633,0.235941 -0.590447,0.130048 -0.889317,0.154 -0.812894,0 -1.625789,0 -2.438683,0 0,0.806667 0,1.613333 0,2.42 1.369666,6.66e-4 2.742001,-0.0013 4.11,10e-4 z"
           id="path29"
           inkscape:connector-curvature="0" /></g><g
         id="g45"><path
           d="m 38.084,51.299 c 1.825226,0.0016 3.650603,-0.0033 5.475734,0.0025 0.426918,0.01641 0.632721,0.592134 0.338233,0.889422 -1.575322,2.025036 -3.150645,4.050073 -4.725967,6.075109 1.462575,0.0023 2.92545,-0.0047 4.387838,0.0035 0.429065,0.02417 0.641036,0.618085 0.323162,0.907486 -0.237207,0.236073 -0.590659,0.128348 -0.889183,0.153 -1.655732,-0.0017 -3.311622,0.0035 -4.967255,-0.0026 -0.427735,-0.01843 -0.627164,-0.59334 -0.339191,-0.892988 1.575876,-2.023806 3.151753,-4.047612 4.727629,-6.071418 -1.462002,-0.0016 -2.924159,0.0033 -4.386064,-0.0025 C 37.599345,52.337486 37.380892,51.740446 37.709,51.454 c 0.09879,-0.09813 0.235064,-0.157285 0.375,-0.155 z"
           id="path33"
           inkscape:connector-curvature="0" /><path
           d="m 45.43,51.831 c 0.0032,1.593251 -0.0065,3.18681 0.005,4.779866 0.05101,0.918292 0.906368,1.699255 1.827363,1.654583 0.946537,0.0011 1.779,-0.865493 1.745687,-1.810156 0.0016,-1.559445 -0.0033,-3.119041 0.0025,-4.678391 0.02021,-0.431876 0.61773,-0.643565 0.906521,-0.322902 0.23697,0.237281 0.131165,0.590388 0.155,0.889389 -0.0041,1.441781 0.0083,2.883922 -0.0064,4.32547 -0.0712,1.214221 -1.001043,2.309908 -2.185813,2.58242 -0.993588,0.250713 -2.109794,-0.08091 -2.779312,-0.864592 C 44.559677,57.82267 44.320552,57.029106 44.364,56.25822 c 0.0016,-1.493754 -0.0032,-2.987655 0.0024,-4.481318 0.01947,-0.43154 0.617395,-0.643781 0.905562,-0.322902 0.101146,0.09781 0.160411,0.235954 0.158,0.377 z"
           id="path35"
           inkscape:connector-curvature="0" /><path
           d="m 50.374,58.798 c 0.0017,-2.340552 -0.0035,-4.681269 0.0026,-7.021719 0.01684,-0.321048 0.343922,-0.521961 0.644012,-0.477281 0.690746,0.0064 1.382359,-0.01382 2.072472,0.0122 1.218699,0.103421 2.238709,1.233347 2.213922,2.456797 0.01822,0.895724 -0.513158,1.754969 -1.299,2.174 0.544757,0.87964 1.103244,1.751522 1.639328,2.636063 0.185999,0.360368 -0.154386,0.821774 -0.553099,0.747859 -0.356003,-0.0492 -0.468942,-0.427169 -0.652507,-0.681876 C 53.939815,57.840031 53.437907,57.036015 52.936,56.232 c -0.499,0 -0.998,0 -1.497,0 -0.0016,0.873028 0.0032,1.746202 -0.0024,2.619139 -0.01803,0.408772 -0.563099,0.631256 -0.865293,0.358806 C 50.446122,59.112173 50.370229,58.95723 50.374,58.798 Z m 1.064,-6.435 c 0,0.935333 0,1.870667 0,2.806 0.539398,-0.0075 1.080304,0.01666 1.618557,-0.01529 0.817702,-0.10103 1.39291,-1.022222 1.125427,-1.801801 -0.182679,-0.623951 -0.830628,-1.046703 -1.473857,-0.987906 -0.423042,-6.65e-4 -0.848752,0.0013 -1.270127,-10e-4 z"
           id="path37"
           inkscape:connector-curvature="0" /><path
           d="m 57.407,58.798 c 0.01926,0.387424 -0.450138,0.666438 -0.783279,0.470867 -0.24157,-0.114426 -0.301241,-0.39052 -0.280721,-0.632891 0.0016,-2.286339 -0.0032,-4.572825 0.0024,-6.859074 0.01865,-0.386601 0.511836,-0.61661 0.82305,-0.390574 0.233387,0.136192 0.250949,0.41526 0.238516,0.655303 0,2.252123 0,4.504246 0,6.756369 z"
           id="path39"
           inkscape:connector-curvature="0" /><path
           d="m 64.174,57.523 c 0.430331,-0.02115 0.705484,0.55461 0.404002,0.869639 -1.354921,1.199462 -3.566602,1.255705 -4.98566,0.132007 -0.933953,-0.706961 -1.559054,-1.824352 -1.588738,-3.00409 -0.07078,-1.122135 0.358638,-2.261287 1.170396,-3.042556 0.785382,-0.817535 1.932802,-1.250353 3.061989,-1.174286 0.874437,0.0407 1.730641,0.390934 2.387058,0.967864 0.272947,0.323695 0.008,0.890738 -0.424047,0.862422 -0.364948,-0.02899 -0.585662,-0.389934 -0.927269,-0.497948 -1.11864,-0.53249 -2.567465,-0.282126 -3.402518,0.647933 -1.076007,1.068226 -1.074485,2.994365 0,4.063024 0.949817,1.059776 2.698835,1.220965 3.841692,0.38554 C 63.845823,57.623032 63.990337,57.517117 64.174,57.523 Z"
           id="path41"
           inkscape:connector-curvature="0" /><path
           d="m 70.715,58.798 c 0.0251,0.43158 -0.549262,0.702833 -0.868301,0.412945 -0.281168,-0.220766 -0.174687,-0.597899 -0.195699,-0.905529 0,-0.819805 0,-1.639611 0,-2.459416 -1.193,0 -2.386,0 -3.579,0 -0.0016,1.002028 0.0033,2.004205 -0.0025,3.006139 -0.01872,0.408959 -0.563234,0.631077 -0.865921,0.358806 -0.281135,-0.220222 -0.172917,-0.598253 -0.194604,-0.905529 0.0016,-2.176153 -0.0032,-4.352448 0.0024,-6.528514 0.01792,-0.433548 0.617738,-0.642663 0.906607,-0.322902 0.23502,0.23841 0.130548,0.590284 0.154,0.889287 0,0.812904 0,1.625809 0,2.438713 1.193,0 2.386,0 3.579,0 0.0016,-1.001681 -0.0033,-2.003512 0.0025,-3.005098 0.02001,-0.431494 0.617067,-0.643825 0.905521,-0.322902 0.237969,0.236875 0.132297,0.590207 0.156,0.889287 0,2.151571 0,4.303142 0,6.454713 z"
           id="path43"
           inkscape:connector-curvature="0" /></g><path
         d="m 59.48,2.004 c -7.66448,-0.073993 -15.160962,4.0762457 -19.244,10.549 1.017317,-0.249121 0.384853,1.15154 0.559,1.745589 0.573725,-0.344964 2.061879,-3.208833 3.321437,-4.20512 C 49.882502,3.9142572 59.472976,1.8271285 67.291176,5.0164909 75.190462,8.036685 80.808571,16.113517 80.802252,24.583827 81.028695,33.062823 75.605952,41.289535 67.772281,44.505437 59.982296,47.9106 50.266033,46.003798 44.360633,39.876413 42.983007,38.729811 41.491835,36.084228 40.795,35.36637 c 0.0185,0.750377 0.212657,1.67641 -0.851,1.34463 4.505296,7.601798 13.683367,12.055583 22.443013,10.821031 9.07594,-1.04827 17.044376,-8.100805 19.227248,-16.966041 C 83.85281,22.26431 80.84967,12.878191 74.220475,7.4064676 70.148149,3.937284 64.831367,1.9817247 59.48,2.004 Z M 79.906,17.897 C 77.289005,9.8166555 69.471835,3.8383317 61.009625,3.324875 58.074227,3.1154818 55.097246,3.5211898 52.323,4.502 51.259115,3.0138995 53.679915,3.1948865 54.59852,2.7901406 63.562176,0.66859499 73.54518,4.7705194 78.451845,12.560207 79.460492,14.121502 80.272832,15.80868 80.872,17.568 80.55,17.677667 80.228,17.787333 79.906,17.897 Z M 61.204,47.395 c -0.628791,-1.680568 1.610375,-0.919975 2.574513,-1.384393 8.745869,-1.637358 15.916708,-9.251473 17.065961,-18.068372 0.317442,-1.607749 0.115152,-3.511146 0.259647,-4.945085 1.68402,-0.578091 0.724962,1.975662 0.954301,2.917093 C 81.764149,35.120371 75.196627,43.685791 66.395105,46.385458 64.712013,46.923147 62.965576,47.26037 61.204,47.395 Z"
         id="path47"
         inkscape:connector-curvature="0" /></g></g></svg>