<?xml version="1.0" encoding="UTF-8" standalone="no"?>
<!-- Generator: Adobe Illustrator 16.0.4, SVG Export Plug-In . SVG Version: 6.00 Build 0)  -->

<svg
   xmlns:dc="http://purl.org/dc/elements/1.1/"
   xmlns:cc="http://creativecommons.org/ns#"
   xmlns:rdf="http://www.w3.org/1999/02/22-rdf-syntax-ns#"
   xmlns:svg="http://www.w3.org/2000/svg"
   xmlns="http://www.w3.org/2000/svg"
   xmlns:sodipodi="http://sodipodi.sourceforge.net/DTD/sodipodi-0.dtd"
   xmlns:inkscape="http://www.inkscape.org/namespaces/inkscape"
   version="1.2"
   x="0px"
   y="0px"
   width="15.514696mm"
   height="11.045016mm"
   viewBox="0 0 58.63822 41.744944"
   xml:space="preserve"
   id="svg50"
   sodipodi:docname="make-zurich-logo-BW.svg"
   inkscape:version="0.92.2 (5c3e80d, 2017-08-06)"><metadata
     id="metadata56"><rdf:RDF><cc:Work
         rdf:about=""><dc:format>image/svg+xml</dc:format><dc:type
           rdf:resource="http://purl.org/dc/dcmitype/StillImage" /><dc:title></dc:title></cc:Work></rdf:RDF></metadata><defs
     id="defs54" /><sodipodi:namedview
     pagecolor="#ffffff"
     bordercolor="#666666"
     borderopacity="1"
     objecttolerance="10"
     gridtolerance="10"
     guidetolerance="10"
     inkscape:pageopacity="0"
     inkscape:pageshadow="2"
     inkscape:window-width="2241"
     inkscape:window-height="1522"
     id="namedview52"
     showgrid="false"
     units="mm"
     fit-margin-top="0"
     fit-margin-left="0"
     fit-margin-right="0"
     fit-margin-bottom="0"
     inkscape:zoom="9.640083"
     inkscape:cx="34.647227"
     inkscape:cy="14.9178"
     inkscape:window-x="1368"
     inkscape:window-y="187"
     inkscape:window-maximized="0"
     inkscape:current-layer="g82" /><g
     id="Ebene_1"
     transform="translate(-1.809,-19.063028)" /><g
     id="g82"
     transform="matrix(0.72818992,0,0,0.72818992,-1.3172956,-1.4592926)"
     inkscape:label="SilkS"><g
       id="monochrome"><path
         id="path3"
         d="m 70.633,14.475 c 0,-1.432 -1.16,-2.592 -2.593,-2.592 H 50.92 c -1.432,0 -2.592,1.16 -2.592,2.592 0,1.432 1.16,2.592 2.592,2.592 h 17.12 c 1.433,-0.001 2.593,-1.161 2.593,-2.592 z m -21.51,0 c 0,-0.951 0.771,-1.722 1.721,-1.722 0.951,0 1.722,0.771 1.722,1.722 0,0.949 -0.771,1.721 -1.722,1.721 -0.95,-0.001 -1.721,-0.772 -1.721,-1.721 z m 17.183,0 c 0,-0.951 0.771,-1.722 1.722,-1.722 0.949,0 1.72,0.771 1.72,1.722 0,0.949 -0.771,1.721 -1.72,1.721 -0.951,-0.001 -1.722,-0.772 -1.722,-1.721 z"
         inkscape:connector-curvature="0" /><path
         id="path5"
         d="m 70.633,35.1 c 0,-1.432 -1.16,-2.593 -2.593,-2.593 H 50.92 c -1.432,0 -2.592,1.161 -2.592,2.593 0,1.431 1.16,2.591 2.592,2.591 H 68.04 C 69.473,37.69 70.633,36.53 70.633,35.1 Z m -21.51,0 c 0,-0.951 0.771,-1.721 1.721,-1.721 0.951,0 1.722,0.77 1.722,1.721 0,0.95 -0.771,1.721 -1.722,1.721 C 49.894,36.82 49.123,36.05 49.123,35.1 Z m 17.183,0 c 0,-0.951 0.771,-1.721 1.722,-1.721 0.949,0 1.72,0.77 1.72,1.721 0,0.95 -0.771,1.721 -1.72,1.721 C 67.077,36.82 66.306,36.05 66.306,35.1 Z"
         inkscape:connector-curvature="0" /><path
         id="path7"
         d="m 69.873,12.643 c -1.012,-1.012 -2.652,-1.012 -3.665,0 l -17.12,20.624 c -1.012,1.013 -1.012,2.653 0,3.665 1.012,1.012 2.653,1.012 3.665,0 l 17.12,-20.624 c 1.013,-1.013 1.013,-2.654 0,-3.665 z M 49.65,36.37 c -0.673,-0.672 -0.673,-1.762 0,-2.434 0.672,-0.672 1.762,-0.672 2.434,0 0.672,0.672 0.672,1.762 0,2.434 -0.674,0.673 -1.763,0.673 -2.434,0 z M 66.814,15.701 c -0.672,-0.672 -0.672,-1.761 0,-2.434 0.672,-0.672 1.762,-0.672 2.434,0 0.672,0.673 0.672,1.762 0,2.434 -0.672,0.672 -1.762,0.672 -2.434,0 z"
         inkscape:connector-curvature="0" /><g
         id="g21"><circle
           id="circle9"
           r="1.5930001"
           cy="35.117001"
           cx="14.53" /><path
           id="path11"
           d="m 15.667,13.357 c -0.301,-0.3 -0.701,-0.466 -1.127,-0.466 -0.426,0 -0.826,0.165 -1.127,0.466 -0.382,0.382 -0.527,0.913 -0.438,1.409 0.155,0.718 0.792,1.257 1.555,1.257 0.879,0 1.594,-0.715 1.594,-1.595 0,-0.094 -0.012,-0.185 -0.028,-0.274 -0.061,-0.291 -0.203,-0.57 -0.429,-0.797 z"
           inkscape:connector-curvature="0" /><path
           id="path13"
           d="m 24.913,23.262 c -0.421,0.003 -0.817,0.168 -1.115,0.467 -0.622,0.62 -0.622,1.631 0,2.253 0.299,0.299 0.696,0.464 1.119,0.466 0.423,-0.002 0.82,-0.167 1.12,-0.466 0.621,-0.621 0.621,-1.632 0,-2.253 -0.301,-0.302 -0.7,-0.466 -1.124,-0.467 z"
           inkscape:connector-curvature="0" /><path
           id="path15"
           d="m 24.409,2.259 c -12.462,0 -22.6,10.139 -22.6,22.601 0,12.462 10.138,22.601 22.6,22.601 12.462,0 22.6,-10.139 22.6,-22.601 0,-12.462 -10.138,-22.601 -22.6,-22.601 z M 5.893,12.681 C 9.087,7.827 13.97,4.466 19.644,3.217 25.424,1.945 31.355,2.999 36.343,6.187 l -0.55,0.86 C 31.034,4.006 25.377,3 19.863,4.213 14.45,5.405 9.792,8.611 6.747,13.24 6.66,13.374 6.573,13.51 6.488,13.646 L 5.618,13.112 C 5.708,12.967 5.8,12.823 5.893,12.681 Z M 31.546,45.84 c -2.336,0.795 -4.748,1.189 -7.151,1.189 -3.255,0 -6.494,-0.724 -9.511,-2.16 C 9.539,42.324 5.505,37.851 3.525,32.272 l 0.962,-0.341 c 1.889,5.321 5.737,9.588 10.836,12.016 5.003,2.383 10.648,2.711 15.895,0.926 0.152,-0.052 0.304,-0.104 0.454,-0.161 l 0.358,0.956 c -0.161,0.06 -0.322,0.116 -0.484,0.172 z M 38.022,14.484 V 35.1 c 0,1.499 -1.22,2.719 -2.718,2.719 -1.5,0 -2.72,-1.22 -2.72,-2.719 V 21.039 L 26.9,26.723 c -0.513,0.514 -1.196,0.796 -1.922,0.796 -0.019,0 -0.037,-0.005 -0.056,-0.005 -0.022,0 -0.043,0.006 -0.066,0.006 -0.727,0 -1.41,-0.283 -1.924,-0.797 L 17.25,21.04 v 14 c 0,1.5 -1.22,2.72 -2.72,2.72 -1.499,0 -2.718,-1.22 -2.718,-2.72 V 14.479 c 0,-10e-4 0,-0.003 0,-0.005 0,-0.002 0,-0.003 0,-0.005 v -0.055 c 0,-1.499 1.219,-2.719 2.718,-2.719 0.906,0 1.705,0.45 2.2,1.133 l 8.188,8.188 8.465,-8.464 c 0.104,-0.104 0.219,-0.191 0.335,-0.276 0.024,-0.017 0.044,-0.039 0.068,-0.056 0.129,-0.087 0.267,-0.158 0.407,-0.222 0.02,-0.009 0.037,-0.021 0.056,-0.03 0.137,-0.058 0.281,-0.098 0.427,-0.133 0.029,-0.007 0.055,-0.02 0.084,-0.025 0.177,-0.036 0.359,-0.055 0.544,-0.055 0,0 0,0 0,0 0.005,0 0.009,10e-4 0.014,10e-4 0.18,10e-4 0.357,0.019 0.53,0.054 0.032,0.006 0.061,0.021 0.093,0.028 0.143,0.035 0.284,0.074 0.419,0.13 0.014,0.006 0.026,0.015 0.04,0.021 0.304,0.134 0.586,0.32 0.828,0.562 0.514,0.513 0.796,1.196 0.796,1.922 -10e-4,0.005 -0.002,0.008 -0.002,0.011 z m 2.32,25.778 c -0.225,0.232 -0.455,0.462 -0.691,0.686 l -0.703,-0.741 c 4.104,-3.884 6.439,-9.131 6.593,-14.775 0.148,-5.54 -1.838,-10.834 -5.596,-14.907 -0.108,-0.117 -0.219,-0.233 -0.331,-0.349 L 40.341,9.46 c 0.12,0.123 0.238,0.246 0.354,0.371 3.941,4.271 6.023,9.82 5.867,15.627 -0.152,5.592 -2.353,10.812 -6.22,14.804 z"
           inkscape:connector-curvature="0" /><path
           id="path17"
           d="m 34.84,16.005 c 0.146,0.043 0.297,0.073 0.454,0.073 0.426,0 0.826,-0.166 1.127,-0.467 0.621,-0.621 0.621,-1.632 0,-2.254 -0.074,-0.074 -0.154,-0.14 -0.239,-0.197 -0.039,-0.026 -0.082,-0.044 -0.123,-0.067 -0.047,-0.026 -0.092,-0.055 -0.141,-0.075 -0.189,-0.08 -0.396,-0.124 -0.613,-0.124 -0.879,0 -1.594,0.715 -1.594,1.594 0,0.717 0.478,1.317 1.129,1.517 z"
           inkscape:connector-curvature="0" /><path
           id="path19"
           d="m 35.305,33.582 c -0.879,0 -1.594,0.715 -1.594,1.593 0,0.88 0.715,1.595 1.594,1.595 0.877,0 1.592,-0.715 1.592,-1.595 -10e-4,-0.878 -0.715,-1.593 -1.592,-1.593 z"
           inkscape:connector-curvature="0" /></g><g
         id="g31"><path
           id="path23"
           d="m 11.812,58.798 v -6.967 c 0,-0.074 0.013,-0.144 0.04,-0.208 0.027,-0.065 0.064,-0.122 0.113,-0.172 0.049,-0.048 0.104,-0.085 0.168,-0.111 0.064,-0.028 0.134,-0.041 0.211,-0.041 0.208,0 0.364,0.095 0.472,0.286 l 3.012,6.019 3.012,-6.019 c 0.121,-0.191 0.278,-0.286 0.472,-0.286 0.074,0 0.143,0.013 0.208,0.041 0.065,0.026 0.123,0.063 0.171,0.111 0.048,0.05 0.086,0.106 0.113,0.172 0.026,0.064 0.04,0.134 0.04,0.208 v 6.967 c 0,0.147 -0.052,0.273 -0.155,0.377 -0.104,0.103 -0.229,0.155 -0.377,0.155 -0.147,0 -0.272,-0.053 -0.376,-0.155 C 18.832,59.071 18.78,58.946 18.78,58.798 V 54.09 l -2.489,4.975 c -0.104,0.177 -0.258,0.266 -0.462,0.266 -0.221,0 -0.383,-0.106 -0.487,-0.321 l -2.464,-4.919 v 4.708 c 0,0.147 -0.052,0.273 -0.155,0.377 -0.104,0.103 -0.229,0.155 -0.376,0.155 -0.147,0 -0.273,-0.053 -0.377,-0.155 -0.107,-0.105 -0.158,-0.231 -0.158,-0.378 z"
           inkscape:connector-curvature="0" /><path
           id="path25"
           d="m 20.275,58.557 2.68,-6.896 c 0.107,-0.241 0.276,-0.361 0.507,-0.361 0.238,0 0.407,0.12 0.507,0.361 l 2.69,6.922 c 0.027,0.067 0.041,0.139 0.041,0.216 0,0.147 -0.052,0.273 -0.155,0.377 -0.104,0.103 -0.229,0.155 -0.376,0.155 -0.148,0 -0.271,-0.053 -0.372,-0.155 -0.053,-0.054 -0.093,-0.11 -0.12,-0.171 L 24.748,56.62 h -2.57 l -0.934,2.385 c -0.026,0.061 -0.067,0.117 -0.12,0.171 -0.104,0.103 -0.229,0.155 -0.377,0.155 -0.148,0 -0.271,-0.053 -0.374,-0.155 -0.103,-0.104 -0.154,-0.229 -0.154,-0.377 0,-0.081 0.019,-0.161 0.056,-0.242 z m 4.06,-3.002 -0.874,-2.253 -0.873,2.253 z"
           inkscape:connector-curvature="0" /><path
           id="path27"
           d="m 27.026,51.831 c 0,-0.147 0.052,-0.272 0.156,-0.377 0.103,-0.104 0.229,-0.155 0.376,-0.155 0.147,0 0.273,0.052 0.376,0.155 0.104,0.104 0.156,0.229 0.156,0.377 v 2.971 l 3.337,-3.337 c 0.111,-0.111 0.24,-0.166 0.387,-0.166 0.073,0 0.143,0.013 0.208,0.041 0.065,0.026 0.123,0.063 0.171,0.111 0.048,0.05 0.086,0.106 0.113,0.172 0.026,0.064 0.04,0.134 0.04,0.208 0,0.147 -0.052,0.272 -0.156,0.376 l -2.63,2.635 2.685,3.64 c 0.067,0.094 0.101,0.194 0.101,0.302 0,0.07 -0.014,0.139 -0.04,0.206 -0.027,0.066 -0.064,0.125 -0.111,0.175 -0.047,0.051 -0.102,0.09 -0.165,0.121 -0.064,0.03 -0.133,0.045 -0.206,0.045 -0.198,0 -0.346,-0.076 -0.447,-0.227 l -2.58,-3.498 -0.707,0.708 v 2.484 c 0,0.147 -0.052,0.273 -0.156,0.377 -0.104,0.103 -0.229,0.155 -0.376,0.155 -0.147,0 -0.273,-0.053 -0.376,-0.155 -0.104,-0.104 -0.156,-0.229 -0.156,-0.377 z"
           inkscape:connector-curvature="0" /><path
           id="path29"
           d="m 37.818,58.266 c 0.148,0 0.273,0.052 0.377,0.156 0.104,0.104 0.155,0.229 0.155,0.376 0,0.147 -0.052,0.273 -0.155,0.377 -0.104,0.103 -0.229,0.155 -0.377,0.155 h -4.643 c -0.077,0 -0.147,-0.014 -0.211,-0.04 -0.063,-0.027 -0.119,-0.064 -0.168,-0.113 -0.048,-0.049 -0.085,-0.104 -0.113,-0.168 -0.026,-0.063 -0.04,-0.134 -0.04,-0.211 v -6.967 c 0,-0.074 0.014,-0.144 0.04,-0.208 0.027,-0.065 0.065,-0.122 0.113,-0.172 0.049,-0.048 0.105,-0.085 0.168,-0.111 0.064,-0.028 0.134,-0.041 0.211,-0.041 h 4.643 c 0.148,0 0.273,0.052 0.377,0.155 0.104,0.104 0.155,0.229 0.155,0.377 0,0.148 -0.052,0.272 -0.155,0.376 -0.103,0.104 -0.229,0.156 -0.377,0.156 h -4.11 v 2.419 h 2.951 c 0.148,0 0.273,0.052 0.377,0.155 0.104,0.104 0.155,0.229 0.155,0.377 0,0.148 -0.052,0.272 -0.155,0.377 -0.104,0.104 -0.229,0.154 -0.377,0.154 h -2.951 v 2.42 h 4.11 z"
           inkscape:connector-curvature="0" /></g><g
         id="g45"><path
           id="path33"
           d="m 38.084,51.299 h 5.422 c 0.072,0 0.143,0.013 0.208,0.041 0.065,0.026 0.122,0.063 0.17,0.111 0.049,0.05 0.087,0.106 0.113,0.172 0.027,0.064 0.04,0.134 0.04,0.208 0,0.11 -0.033,0.214 -0.101,0.311 l -4.764,6.124 h 4.333 c 0.149,0.003 0.276,0.057 0.378,0.161 0.102,0.104 0.153,0.229 0.153,0.376 0,0.147 -0.052,0.272 -0.153,0.374 -0.102,0.103 -0.226,0.153 -0.373,0.153 h -5.427 c -0.077,0 -0.147,-0.014 -0.21,-0.04 -0.064,-0.027 -0.12,-0.064 -0.168,-0.113 -0.049,-0.049 -0.087,-0.104 -0.113,-0.168 -0.027,-0.063 -0.041,-0.134 -0.041,-0.211 0.003,-0.127 0.041,-0.238 0.111,-0.331 l 4.753,-6.104 h -4.333 c -0.144,0 -0.268,-0.053 -0.373,-0.156 -0.106,-0.104 -0.159,-0.229 -0.159,-0.376 0,-0.147 0.053,-0.272 0.159,-0.377 0.107,-0.103 0.231,-0.155 0.375,-0.155 z"
           inkscape:connector-curvature="0" /><path
           id="path35"
           d="m 45.43,51.831 v 4.644 c 0,0.244 0.047,0.475 0.14,0.691 0.094,0.219 0.221,0.408 0.382,0.57 0.16,0.162 0.35,0.291 0.567,0.386 0.217,0.096 0.45,0.144 0.697,0.144 0.248,0 0.48,-0.047 0.698,-0.141 0.218,-0.094 0.407,-0.222 0.57,-0.386 0.161,-0.165 0.289,-0.354 0.384,-0.57 0.093,-0.216 0.14,-0.447 0.14,-0.694 v -4.644 c 0,-0.147 0.053,-0.272 0.156,-0.377 0.104,-0.104 0.229,-0.155 0.376,-0.155 0.147,0 0.273,0.052 0.377,0.155 0.104,0.104 0.155,0.229 0.155,0.377 v 4.644 c 0,0.261 -0.034,0.512 -0.104,0.752 -0.067,0.241 -0.163,0.468 -0.288,0.681 -0.124,0.212 -0.272,0.405 -0.446,0.579 -0.174,0.175 -0.367,0.324 -0.58,0.449 -0.213,0.126 -0.44,0.223 -0.683,0.291 -0.242,0.069 -0.494,0.104 -0.756,0.104 -0.789,0 -1.46,-0.279 -2.013,-0.838 -0.559,-0.56 -0.838,-1.232 -0.838,-2.018 v -4.644 c 0,-0.147 0.052,-0.272 0.156,-0.377 0.103,-0.104 0.229,-0.155 0.376,-0.155 0.146,0 0.273,0.052 0.376,0.155 0.105,0.105 0.158,0.23 0.158,0.377 z"
           inkscape:connector-curvature="0" /><path
           id="path37"
           d="m 50.374,58.798 v -6.967 c 0,-0.074 0.014,-0.144 0.04,-0.208 0.026,-0.065 0.064,-0.122 0.113,-0.172 0.048,-0.048 0.104,-0.085 0.168,-0.111 0.062,-0.028 0.133,-0.041 0.21,-0.041 h 1.938 c 0.338,0 0.658,0.065 0.957,0.196 0.299,0.13 0.56,0.307 0.783,0.532 0.222,0.224 0.399,0.485 0.529,0.785 0.131,0.299 0.195,0.618 0.195,0.956 0,0.221 -0.027,0.436 -0.083,0.645 -0.055,0.209 -0.136,0.407 -0.245,0.593 -0.108,0.186 -0.245,0.357 -0.407,0.517 -0.162,0.16 -0.351,0.299 -0.564,0.419 l 1.602,2.565 c 0.057,0.094 0.085,0.191 0.085,0.291 0,0.077 -0.014,0.147 -0.04,0.211 -0.027,0.063 -0.064,0.119 -0.112,0.168 -0.049,0.049 -0.105,0.086 -0.171,0.113 -0.066,0.026 -0.135,0.04 -0.209,0.04 -0.188,0 -0.339,-0.087 -0.456,-0.261 l -1.771,-2.837 h -1.497 v 2.565 c 0,0.147 -0.052,0.273 -0.154,0.377 -0.104,0.103 -0.229,0.155 -0.378,0.155 -0.147,0 -0.271,-0.053 -0.376,-0.155 -0.106,-0.103 -0.157,-0.229 -0.157,-0.376 z m 1.064,-6.435 v 2.806 h 1.405 c 0.194,0 0.377,-0.036 0.548,-0.11 0.171,-0.073 0.319,-0.176 0.443,-0.304 0.127,-0.13 0.226,-0.277 0.3,-0.447 0.073,-0.169 0.11,-0.349 0.11,-0.539 0,-0.194 -0.037,-0.377 -0.11,-0.547 -0.074,-0.171 -0.174,-0.32 -0.301,-0.446 -0.128,-0.128 -0.276,-0.229 -0.447,-0.302 -0.17,-0.074 -0.352,-0.11 -0.543,-0.11 h -1.405 z"
           inkscape:connector-curvature="0" /><path
           id="path39"
           d="m 57.407,58.798 c 0,0.147 -0.053,0.273 -0.156,0.377 -0.104,0.103 -0.229,0.155 -0.376,0.155 -0.148,0 -0.273,-0.053 -0.378,-0.155 -0.103,-0.104 -0.154,-0.229 -0.154,-0.377 v -6.967 c 0,-0.147 0.052,-0.272 0.154,-0.377 0.104,-0.104 0.229,-0.155 0.378,-0.155 0.146,0 0.271,0.052 0.376,0.155 0.104,0.104 0.156,0.229 0.156,0.377 z"
           inkscape:connector-curvature="0" /><path
           id="path41"
           d="m 64.174,57.523 c 0.072,0 0.142,0.014 0.206,0.042 0.062,0.028 0.118,0.066 0.168,0.113 0.048,0.047 0.087,0.104 0.114,0.169 0.029,0.064 0.043,0.134 0.043,0.207 0,0.141 -0.055,0.268 -0.166,0.382 -0.746,0.596 -1.587,0.894 -2.524,0.894 -1.11,0 -2.058,-0.392 -2.841,-1.174 -0.782,-0.784 -1.175,-1.73 -1.175,-2.842 0,-1.107 0.393,-2.053 1.175,-2.836 0.786,-0.786 1.733,-1.18 2.841,-1.18 0.95,0 1.809,0.312 2.575,0.938 0.094,0.091 0.141,0.213 0.141,0.366 0,0.078 -0.014,0.147 -0.039,0.211 -0.028,0.063 -0.065,0.119 -0.114,0.168 -0.049,0.049 -0.105,0.087 -0.171,0.113 -0.064,0.027 -0.134,0.04 -0.208,0.04 -0.13,0 -0.253,-0.05 -0.366,-0.151 -0.255,-0.2 -0.534,-0.354 -0.841,-0.461 -0.307,-0.107 -0.631,-0.16 -0.977,-0.16 -0.816,0 -1.514,0.289 -2.093,0.868 -0.572,0.572 -0.858,1.267 -0.858,2.083 0,0.819 0.286,1.516 0.858,2.088 0.575,0.575 1.273,0.863 2.093,0.863 0.699,0 1.315,-0.216 1.848,-0.647 0.086,-0.058 0.19,-0.091 0.311,-0.094 z"
           inkscape:connector-curvature="0" /><path
           id="path43"
           d="m 70.715,58.798 c 0,0.147 -0.052,0.273 -0.156,0.377 -0.104,0.103 -0.229,0.155 -0.376,0.155 -0.147,0 -0.273,-0.053 -0.376,-0.155 -0.104,-0.104 -0.156,-0.229 -0.156,-0.377 v -2.952 h -3.579 v 2.952 c 0,0.147 -0.053,0.273 -0.154,0.377 -0.105,0.103 -0.229,0.155 -0.378,0.155 -0.147,0 -0.271,-0.053 -0.377,-0.155 -0.104,-0.104 -0.154,-0.229 -0.154,-0.377 v -6.967 c 0,-0.147 0.051,-0.272 0.154,-0.377 0.105,-0.104 0.229,-0.155 0.377,-0.155 0.148,0 0.272,0.052 0.378,0.155 0.102,0.104 0.154,0.229 0.154,0.377 v 2.951 h 3.579 v -2.951 c 0,-0.147 0.053,-0.272 0.156,-0.377 0.103,-0.104 0.229,-0.155 0.376,-0.155 0.147,0 0.272,0.052 0.376,0.155 0.104,0.104 0.156,0.229 0.156,0.377 z"
           inkscape:connector-curvature="0" /></g><path
         id="path47"
         d="m 59.48,2.004 c -8.073,0 -15.177,4.211 -19.244,10.549 h 0.559 v 2.05 C 44.428,8.013 51.439,3.535 59.48,3.535 c 11.758,0 21.324,9.566 21.324,21.324 0,11.758 -9.566,21.325 -21.324,21.325 -8.041,0 -15.053,-4.478 -18.685,-11.067 v 1.594 h -0.851 c 4.014,6.593 11.27,11.005 19.536,11.005 12.603,0 22.855,-10.253 22.855,-22.855 C 82.335,12.259 72.083,2.004 59.48,2.004 Z M 79.906,17.897 C 78.048,12.442 74.176,8.037 69.003,5.493 63.927,2.998 58.168,2.59 52.789,4.342 52.635,4.394 52.478,4.446 52.323,4.502 L 51.979,3.541 c 0.162,-0.059 0.326,-0.113 0.49,-0.168 5.635,-1.837 11.666,-1.409 16.983,1.204 5.418,2.665 9.473,7.278 11.42,12.991 z M 61.204,47.395 61.126,46.377 c 5.747,-0.44 10.979,-3.092 14.733,-7.466 3.683,-4.293 5.515,-9.767 5.158,-15.412 -0.011,-0.164 -0.021,-0.327 -0.037,-0.49 l 1.016,-0.097 c 0.017,0.174 0.029,0.348 0.04,0.521 0.373,5.914 -1.545,11.646 -5.402,16.143 -3.932,4.581 -9.412,7.358 -15.43,7.819 z"
         inkscape:connector-curvature="0" /></g></g></svg>